<svg width="269" height="72" viewBox="0 0 269 72" fill="none" xmlns="http://www.w3.org/2000/svg">
<path d="M154.602 31.8947V33.1459C155.074 32.1854 155.849 31.7052 156.928 31.7052C157.812 31.7052 158.52 32.0211 159.051 32.653C159.59 33.2849 159.86 34.1233 159.86 35.1679C159.86 36.1959 159.594 37.0257 159.063 37.6576C158.533 38.2812 157.829 38.5928 156.953 38.5928C155.858 38.5928 155.091 38.1252 154.653 37.19V40.8171H153.882V31.8947H154.602ZM158.444 33.1332C158.048 32.6194 157.509 32.3623 156.826 32.3623C156.144 32.3623 155.605 32.6108 155.209 33.108C154.821 33.6051 154.627 34.2876 154.627 35.1553C154.627 36.0063 154.825 36.6802 155.221 37.1774C155.626 37.6746 156.169 37.923 156.852 37.923C157.517 37.923 158.048 37.6746 158.444 37.1774C158.849 36.6719 159.051 36.0021 159.051 35.1679C159.051 34.3169 158.849 33.6388 158.444 33.1332ZM164.327 31.7936V32.6024C164.294 32.6024 164.252 32.6024 164.201 32.6024C164.159 32.5941 164.129 32.5898 164.113 32.5898C163.624 32.5898 163.186 32.7331 162.798 33.0195C162.419 33.2975 162.166 33.6683 162.04 34.1316C161.939 34.5277 161.888 35.0626 161.888 35.7367V38.3906H161.105V31.8947H161.85V33.4492C162.128 32.8509 162.448 32.4298 162.811 32.1854C163.173 31.9326 163.679 31.802 164.327 31.7936ZM170.08 36.2548C169.936 36.9878 169.625 37.5649 169.144 37.9862C168.664 38.399 168.049 38.6055 167.299 38.6055C166.398 38.6055 165.673 38.2979 165.126 37.6829C164.586 37.0679 164.317 36.2465 164.317 35.2185C164.317 34.1905 164.59 33.3524 165.138 32.7035C165.694 32.0464 166.41 31.7178 167.287 31.7178C168.205 31.7178 168.908 32.0421 169.397 32.6909C169.894 33.3397 170.143 34.1443 170.143 35.1048V35.3322H165.126C165.126 36.0822 165.307 36.7098 165.669 37.2153C166.04 37.7125 166.592 37.9609 167.325 37.9609C168.394 37.9609 169.056 37.3922 169.309 36.2548H170.08ZM169.347 34.6877C169.304 33.9631 169.098 33.3986 168.727 32.9942C168.357 32.5815 167.868 32.375 167.261 32.375C166.604 32.375 166.103 32.5898 165.757 33.0195C165.42 33.4492 165.21 34.0053 165.126 34.6877H169.347ZM171.885 31.8947V33.0321C172.163 32.5941 172.471 32.2655 172.808 32.0464C173.144 31.8272 173.557 31.7178 174.046 31.7178C174.518 31.7178 174.914 31.8315 175.234 32.059C175.563 32.2782 175.786 32.5855 175.904 32.9816C176.35 32.1391 177.071 31.7178 178.065 31.7178C178.655 31.7178 179.147 31.8904 179.544 32.2359C179.948 32.5729 180.15 33.0784 180.15 33.7525V38.3906H179.354V33.9673C179.354 32.9394 178.853 32.4255 177.85 32.4255C177.277 32.4255 176.831 32.6067 176.51 32.9689C176.199 33.3228 176.043 33.803 176.043 34.4097V38.3906H175.259V34.0305C175.259 32.9606 174.783 32.4255 173.831 32.4255C173.199 32.4255 172.723 32.6361 172.403 33.0574C172.091 33.4788 171.936 34.0262 171.936 34.7003V38.3906H171.139V31.8947H171.885ZM182.366 29.3545V30.6562H181.57V29.3545H182.366ZM182.366 31.8947V38.3906H181.57V31.8947H182.366ZM189.037 31.8947V38.3906H188.304V37.19C187.824 38.1169 187.061 38.5802 186.017 38.5802C185.326 38.5802 184.778 38.3823 184.374 37.9862C183.978 37.5818 183.78 36.9921 183.78 36.2169V31.8947H184.576V35.8757C184.576 36.5498 184.698 37.0553 184.942 37.3922C185.195 37.7208 185.621 37.8851 186.219 37.8851C186.851 37.8851 187.348 37.6576 187.71 37.2027C188.072 36.7393 188.253 36.1663 188.253 35.4839V31.8947H189.037ZM191.241 31.8947V33.0321C191.519 32.5941 191.827 32.2655 192.164 32.0464C192.501 31.8272 192.914 31.7178 193.402 31.7178C193.874 31.7178 194.27 31.8315 194.59 32.059C194.919 32.2782 195.142 32.5855 195.26 32.9816C195.707 32.1391 196.427 31.7178 197.421 31.7178C198.011 31.7178 198.504 31.8904 198.9 32.2359C199.304 32.5729 199.507 33.0784 199.507 33.7525V38.3906H198.71V33.9673C198.71 32.9394 198.209 32.4255 197.206 32.4255C196.633 32.4255 196.187 32.6067 195.867 32.9689C195.555 33.3228 195.399 33.803 195.399 34.4097V38.3906H194.616V34.0305C194.616 32.9606 194.139 32.4255 193.188 32.4255C192.556 32.4255 192.079 32.6361 191.759 33.0574C191.448 33.4788 191.292 34.0262 191.292 34.7003V38.3906H190.496V31.8947H191.241ZM205.092 31.8947V33.0321C205.37 32.5941 205.677 32.2655 206.014 32.0464C206.351 31.8272 206.764 31.7178 207.253 31.7178C207.725 31.7178 208.12 31.8315 208.441 32.059C208.769 32.2782 208.992 32.5855 209.11 32.9816C209.557 32.1391 210.277 31.7178 211.272 31.7178C211.861 31.7178 212.354 31.8904 212.75 32.2359C213.155 32.5729 213.357 33.0784 213.357 33.7525V38.3906H212.561V33.9673C212.561 32.9394 212.059 32.4255 211.057 32.4255C210.484 32.4255 210.037 32.6067 209.717 32.9689C209.405 33.3228 209.249 33.803 209.249 34.4097V38.3906H208.466V34.0305C208.466 32.9606 207.99 32.4255 207.038 32.4255C206.406 32.4255 205.93 32.6361 205.61 33.0574C205.298 33.4788 205.142 34.0262 205.142 34.7003V38.3906H204.346V31.8947H205.092ZM220.463 37.7461V38.3527C220.269 38.4202 220.059 38.4538 219.831 38.4538C219.486 38.4538 219.258 38.3484 219.149 38.1379C219.039 37.9273 218.984 37.6366 218.984 37.2659C218.437 38.1336 217.62 38.5676 216.533 38.5676C215.867 38.5676 215.345 38.4076 214.966 38.0873C214.595 37.7671 214.41 37.3207 214.41 36.7477C214.41 35.5767 215.214 34.9068 216.823 34.7383C216.908 34.7299 217.026 34.7213 217.177 34.713C217.329 34.6961 217.439 34.6834 217.506 34.6751C217.582 34.6667 217.674 34.6581 217.784 34.6498C217.902 34.6329 217.986 34.6202 218.037 34.6119C218.096 34.6035 218.163 34.5909 218.239 34.574C218.323 34.557 218.386 34.5403 218.428 34.5234C218.479 34.5065 218.529 34.4898 218.58 34.4729C218.631 34.4476 218.677 34.4223 218.719 34.397C218.871 34.2959 218.947 34.0894 218.947 33.7778C218.947 33.2639 218.803 32.9015 218.517 32.6909C218.23 32.4804 217.809 32.375 217.253 32.375C216.706 32.375 216.284 32.5013 215.989 32.7541C215.703 32.9985 215.534 33.3817 215.484 33.9042H214.725C214.759 33.2048 215.004 32.6656 215.458 32.2865C215.913 31.9074 216.541 31.7178 217.342 31.7178C218.083 31.7178 218.664 31.8778 219.086 32.198C219.515 32.5183 219.73 32.9816 219.73 33.5882V37.1268C219.73 37.2954 219.734 37.4175 219.743 37.4933C219.751 37.5608 219.785 37.6281 219.844 37.6955C219.911 37.7544 220.017 37.784 220.16 37.784C220.269 37.784 220.371 37.7714 220.463 37.7461ZM218.947 34.852C218.871 34.9362 218.744 35.0079 218.567 35.0668C218.399 35.1174 218.243 35.1553 218.1 35.1806C217.957 35.2059 217.712 35.2395 217.367 35.2817C217.283 35.29 217.219 35.2986 217.177 35.307C216.908 35.3406 216.684 35.3785 216.507 35.4207C216.339 35.4629 216.141 35.5345 215.913 35.6356C215.695 35.7283 215.526 35.863 215.408 36.04C215.298 36.2086 215.244 36.4191 215.244 36.6719C215.244 37.051 215.379 37.3543 215.648 37.5818C215.918 37.8009 216.28 37.9104 216.735 37.9104C217.35 37.9104 217.872 37.7292 218.302 37.367C218.732 36.9962 218.947 36.5119 218.947 35.9136V34.852ZM226.73 31.8947V38.0368C226.73 39.9747 225.761 40.9435 223.823 40.9435C223.031 40.9435 222.403 40.7709 221.94 40.4253C221.477 40.0884 221.224 39.6082 221.182 38.9846H221.978C222.104 39.8776 222.732 40.3242 223.861 40.3242C224.628 40.3242 225.171 40.1263 225.491 39.7302C225.82 39.3342 225.984 38.7488 225.984 37.9736V36.8867C225.546 37.8388 224.796 38.3148 223.735 38.3148C222.875 38.3148 222.189 38.0241 221.675 37.4428C221.169 36.8531 220.916 36.0695 220.916 35.0921C220.916 34.0727 221.178 33.2553 221.7 32.6404C222.231 32.0254 222.93 31.7178 223.798 31.7178C224.826 31.7178 225.563 32.1854 226.01 33.1206V31.8947H226.73ZM225.39 33.0953C225.003 32.632 224.484 32.4002 223.836 32.4002C223.187 32.4002 222.669 32.6361 222.281 33.108C221.902 33.5799 221.713 34.2201 221.713 35.0289C221.713 35.8208 221.902 36.4527 222.281 36.9246C222.66 37.3965 223.17 37.6324 223.81 37.6324C224.476 37.6324 225.003 37.3922 225.39 36.912C225.778 36.4234 225.972 35.7662 225.972 34.9405C225.972 34.1653 225.778 33.5503 225.39 33.0953ZM228.89 31.8947V33.1206C229.16 32.6404 229.472 32.2865 229.826 32.059C230.188 31.8315 230.643 31.7178 231.191 31.7178C231.865 31.7178 232.408 31.9031 232.821 32.2739C233.234 32.6447 233.44 33.2091 233.44 33.9673V38.3906H232.644V34.2201C232.644 33.0152 232.092 32.4129 230.988 32.4129C230.365 32.4129 229.868 32.6234 229.497 33.0448C229.126 33.4575 228.941 34.0684 228.941 34.8773V38.3906H228.145V31.8947H228.89ZM240.245 36.2548C240.102 36.9878 239.789 37.5649 239.31 37.9862C238.828 38.399 238.214 38.6055 237.464 38.6055C236.563 38.6055 235.838 38.2979 235.291 37.6829C234.751 37.0679 234.482 36.2465 234.482 35.2185C234.482 34.1905 234.755 33.3524 235.303 32.7035C235.859 32.0464 236.575 31.7178 237.452 31.7178C238.37 31.7178 239.074 32.0421 239.563 32.6909C240.059 33.3397 240.307 34.1443 240.307 35.1048V35.3322H235.291C235.291 36.0822 235.472 36.7098 235.834 37.2153C236.205 37.7125 236.757 37.9609 237.49 37.9609C238.559 37.9609 239.222 37.3922 239.474 36.2548H240.245ZM239.513 34.6877C239.47 33.9631 239.262 33.3986 238.893 32.9942C238.521 32.5815 238.033 32.375 237.426 32.375C236.769 32.375 236.268 32.5898 235.922 33.0195C235.585 33.4492 235.375 34.0053 235.291 34.6877H239.513ZM243.883 31.8947V32.5393H242.543V36.6592C242.543 36.8784 242.548 37.0341 242.555 37.1268C242.565 37.211 242.589 37.3164 242.632 37.4428C242.682 37.5608 242.765 37.6407 242.884 37.6829C243.001 37.7251 243.163 37.7461 243.364 37.7461C243.483 37.7461 243.654 37.7335 243.883 37.7082V38.3906C243.621 38.4242 243.39 38.4412 243.187 38.4412C242.405 38.4412 241.952 38.1927 241.835 37.6955C241.785 37.485 241.759 37.0088 241.759 36.2674V32.5393H240.609V31.8947H241.759V29.9106H242.543V31.8947H243.883ZM256.86 31.8947L254.75 38.3906H253.889L252.601 34.119C252.491 33.7482 252.382 33.3228 252.272 32.8426C252.153 33.3312 252.043 33.7568 251.943 34.119L250.679 38.3906H249.795L247.684 31.8947H248.543L249.783 35.8504C249.859 36.0779 250.009 36.6382 250.238 37.5312C250.491 36.5202 250.634 35.9515 250.667 35.8251L251.829 31.8947H252.739L253.977 36.0147C254.053 36.2591 254.175 36.7646 254.344 37.5312C254.48 36.9582 254.609 36.4613 254.735 36.04L256.037 31.8947H256.86ZM258.434 29.3545V30.6562H257.637V29.3545H258.434ZM258.434 31.8947V38.3906H257.637V31.8947H258.434ZM263.184 31.7936V32.6024C263.15 32.6024 263.107 32.6024 263.057 32.6024C263.014 32.5941 262.986 32.5898 262.969 32.5898C262.48 32.5898 262.042 32.7331 261.655 33.0195C261.276 33.2975 261.023 33.6683 260.897 34.1316C260.794 34.5277 260.744 35.0626 260.744 35.7367V38.3906H259.96V31.8947H260.706V33.4492C260.985 32.8509 261.305 32.4298 261.667 32.1854C262.03 31.9326 262.535 31.802 263.184 31.7936ZM268.935 36.2548C268.792 36.9878 268.48 37.5649 268 37.9862C267.521 38.399 266.906 38.6055 266.155 38.6055C265.253 38.6055 264.529 38.2979 263.982 37.6829C263.441 37.0679 263.172 36.2465 263.172 35.2185C263.172 34.1905 263.446 33.3524 263.994 32.7035C264.55 32.0464 265.265 31.7178 266.143 31.7178C267.061 31.7178 267.764 32.0421 268.253 32.6909C268.749 33.3397 269 34.1443 269 35.1048V35.3322H263.982C263.982 36.0822 264.161 36.7098 264.524 37.2153C264.896 37.7125 265.447 37.9609 266.181 37.9609C267.249 37.9609 267.912 37.3922 268.165 36.2548H268.935ZM268.203 34.6877C268.16 33.9631 267.953 33.3986 267.583 32.9942C267.214 32.5815 266.725 32.375 266.117 32.375C265.461 32.375 264.958 32.5898 264.614 33.0195C264.276 33.4492 264.066 34.0053 263.982 34.6877H268.203Z" fill="white"/>
<path fill-rule="evenodd" clip-rule="evenodd" d="M84.0684 1.52184C97.0831 3.66994 108.544 7.98762 116.849 13.8711L108.946 17.2045C101.912 12.2216 92.2053 8.56488 81.1829 6.74554C70.1602 4.92625 58.373 5.03534 47.4693 7.05761C36.5659 9.07989 27.091 12.9142 20.3699 18.0244C13.6486 23.1346 10.017 29.2652 9.98291 35.5591C9.94879 41.8528 13.5138 47.9951 20.1794 53.1271C26.8452 58.2591 36.2781 62.1239 47.1596 64.1815C58.0409 66.2391 69.8268 66.3865 80.8688 64.6028C91.9111 62.8192 101.657 59.194 108.745 54.234L116.612 57.5931C108.244 63.4494 96.7357 67.7299 83.6978 69.8359C70.66 71.9417 56.7442 71.7678 43.8961 69.3383C31.0481 66.9089 19.9101 62.3454 12.0398 56.2859C4.16936 50.2266 -0.0399989 42.9741 0.000286483 35.5429C0.0406882 28.1116 4.32864 20.873 12.2645 14.8392C20.2005 8.80534 31.3879 4.27804 44.2619 1.89029C57.1362 -0.497458 71.0537 -0.626292 84.0684 1.52184ZM77.8438 12.0147C87.0006 13.2902 95.1962 16.0197 101.323 19.8347L93.7758 23.2184C88.9597 20.2198 82.518 18.0743 75.3205 17.0718C68.1229 16.0693 60.5165 16.258 53.5284 17.6124C46.5401 18.9669 40.5073 21.4218 36.2442 24.6457C31.9812 27.8696 29.6935 31.707 29.6899 35.6397C29.6866 39.5725 31.9678 43.4111 36.2251 46.6371C40.4827 49.8629 46.5115 52.3209 53.4972 53.6786C60.4831 55.0364 68.0892 55.2288 75.2886 54.2297C82.4877 53.2308 88.9333 51.0883 93.7543 48.0919L101.296 51.4794C95.1624 55.2915 86.9622 58.017 77.8031 59.288C68.6439 60.5592 58.9673 60.3143 50.0797 58.5869C41.1923 56.8596 33.5223 53.7325 28.1059 49.6285C22.6893 45.5243 19.7873 40.6408 19.7916 35.6374C19.7959 30.6342 22.7063 25.7519 28.1299 21.6505C33.5535 17.5489 41.2288 14.4257 50.1193 12.7025C59.0097 10.9794 68.6868 10.7393 77.8438 12.0147Z" fill="url(#paint0_linear_121_17)"/>
<path d="M49.3596 44.1137H46.2598V25.7529H57.7055V28.8528H49.3596V33.6218H56.7517V36.4833H49.3596V44.1137Z" fill="white"/>
<path d="M71.7736 25.7529H60.5664V44.1137H71.7736V41.2523H63.4278V36.4833H70.8198V33.6218H63.4278V28.8528H71.7736V25.7529Z" fill="white"/>
<path d="M77.7356 44.1136H74.6357V25.2759L85.843 37.1985V25.7528H88.7044V44.7097L77.7356 32.9063V44.1136Z" fill="white"/>
<path d="M95.8577 25.7529H92.7578V44.1137H95.8577V25.7529Z" fill="white"/>
<path d="M111.118 25.7529H98.7188V28.8528H103.488V44.1137H106.349V28.8528H111.118V25.7529Z" fill="white"/>
<path d="M125.426 25.7529H113.98V44.1137H125.426V41.2523H117.08V36.4833H124.472V33.6218H117.08V28.8528H125.426V25.7529Z" fill="white"/>
<mask id="mask0_121_17" style="mask-type:alpha" maskUnits="userSpaceOnUse" x="127" y="25" width="16" height="20">
<path d="M142.97 28.4767C141.67 27.1762 140.013 26.2904 138.209 25.9315C136.405 25.5729 134.535 25.757 132.835 26.4609C131.136 27.1648 129.684 28.3566 128.662 29.886C127.64 31.4152 127.095 33.2133 127.095 35.0525C127.095 36.8917 127.64 38.6899 128.662 40.2191C129.684 41.7485 131.136 42.9403 132.835 43.6442C134.535 44.3481 136.405 44.5322 138.209 44.1736C140.013 43.8147 141.67 42.9288 142.97 41.6283L140.718 39.3761C139.863 40.2312 138.773 40.8135 137.587 41.0496C136.401 41.2854 135.172 41.1643 134.054 40.7015C132.937 40.2389 131.982 39.4551 131.31 38.4495C130.639 37.444 130.28 36.262 130.28 35.0525C130.28 33.8431 130.639 32.6611 131.31 31.6555C131.982 30.65 132.937 29.8662 134.054 29.4036C135.172 28.9408 136.401 28.8196 137.587 29.0555C138.773 29.2915 139.863 29.8738 140.718 30.7289L142.97 28.4767Z" fill="white"/>
</mask>
<g mask="url(#mask0_121_17)">
<path d="M126.379 23.3682H140.687V45.3057H126.379V23.3682Z" fill="white"/>
</g>
<path d="M147.602 17.8838H147.125V51.744H147.602V17.8838Z" fill="white"/>
<defs>
<linearGradient id="paint0_linear_121_17" x1="110.999" y1="7.74968" x2="7.51124" y2="52.4594" gradientUnits="userSpaceOnUse">
<stop stop-color="#84502B"/>
<stop offset="0.553835" stop-color="#D89E70"/>
<stop offset="1" stop-color="#4E2E19"/>
</linearGradient>
</defs>
</svg>
