<svg width="232" height="116" viewBox="0 0 232 116" fill="none" xmlns="http://www.w3.org/2000/svg">
<path fill-rule="evenodd" clip-rule="evenodd" d="M136.419 2.46952C157.538 5.95527 176.136 12.9616 189.613 22.5088L176.788 27.918C165.374 19.8322 149.623 13.8984 131.737 10.9461C113.85 7.9939 94.7228 8.17092 77.0292 11.4525C59.336 14.7341 43.961 20.956 33.0545 29.2484C22.1478 37.5409 16.2547 47.4891 16.1994 57.7023C16.144 67.9152 21.9291 77.8824 32.7454 86.2101C43.562 94.5378 58.869 100.809 76.5266 104.148C94.1838 107.487 113.309 107.726 131.227 104.832C149.145 101.938 164.961 96.055 176.463 88.0063L189.228 93.4571C175.648 102.96 156.974 109.906 135.818 113.324C114.661 116.741 92.0796 116.459 71.2309 112.516C50.3822 108.574 32.3084 101.169 19.5371 91.3359C6.76567 81.5034 -0.0649068 69.7346 0.00046488 57.676C0.0660254 45.6171 7.02415 33.8709 19.9018 24.0797C32.7796 14.2886 50.9336 6.94204 71.8245 3.0674C92.7157 -0.807233 115.3 -1.01629 136.419 2.46952ZM126.318 19.4964C141.177 21.5661 154.476 25.9954 164.419 32.186L152.171 37.6769C144.356 32.811 133.903 29.3295 122.224 27.7026C110.544 26.0758 98.201 26.382 86.8613 28.5799C75.5213 30.7778 65.7317 34.7615 58.814 39.9929C51.8963 45.2243 48.184 51.4513 48.1782 57.8331C48.1728 64.2149 51.8746 70.4439 58.7831 75.6788C65.6919 80.9133 75.4749 84.9019 86.8106 87.1051C98.1468 89.3083 110.489 89.6206 122.172 87.9993C133.854 86.3784 144.313 82.9018 152.136 78.0395L164.374 83.5364C154.421 89.7224 141.115 94.1451 126.252 96.2075C111.389 98.2702 95.687 97.8728 81.265 95.0699C66.8434 92.2669 54.3971 87.1926 45.6078 80.5329C36.8183 73.8729 32.1091 65.9484 32.116 57.8293C32.1231 49.7105 36.8459 41.7879 45.6469 35.1325C54.4478 28.4769 66.9026 23.4088 81.3292 20.6125C95.7559 17.8164 111.459 17.4268 126.318 19.4964Z" fill="url(#paint0_linear_41_170)"/>
<path d="M80.0966 71.5838H75.0664V41.7894H93.6395V46.8196H80.0966V54.5584H92.0917V59.2017H80.0966V71.5838Z" fill="#000000"/>
<path d="M116.468 41.7894H98.2822V71.5838H116.468V66.9405H102.925V59.2017H114.921V54.5584H102.925V46.8196H116.468V41.7894Z" fill="#000000"/>
<path d="M126.143 71.5837H121.112V41.0155L139.298 60.3625V41.7894H143.942V72.5511L126.143 53.3976V71.5837Z" fill="#000000"/>
<path d="M155.55 41.7894H150.52V71.5838H155.55V41.7894Z" fill="#000000"/>
<path d="M180.314 41.7894H160.193V46.8196H167.932V71.5838H172.575V46.8196H180.314V41.7894Z" fill="#000000"/>
<path d="M203.53 41.7894H184.957V71.5838H203.53V66.9405H189.987V59.2017H201.982V54.5584H189.987V46.8196H203.53V41.7894Z" fill="#000000"/>
<mask id="mask0_41_170" style="mask-type:alpha" maskUnits="userSpaceOnUse" x="206" y="41" width="26" height="31">
<path d="M232 46.2094C229.889 44.099 227.2 42.6615 224.273 42.0792C221.346 41.4972 218.312 41.796 215.554 42.9382C212.797 44.0805 210.44 46.0144 208.782 48.4962C207.123 50.9777 206.238 53.8956 206.238 56.88C206.238 59.8645 207.123 62.7824 208.782 65.2638C210.44 67.7457 212.797 69.6796 215.554 70.8218C218.312 71.9641 221.346 72.2628 224.273 71.6808C227.2 71.0985 229.889 69.661 232 67.5507L228.345 63.896C226.957 65.2836 225.189 66.2285 223.265 66.6115C221.34 66.9942 219.345 66.7977 217.532 66.0466C215.719 65.296 214.169 64.0241 213.079 62.3924C211.989 60.7606 211.407 58.8426 211.407 56.88C211.407 54.9175 211.989 52.9994 213.079 51.3677C214.169 49.736 215.719 48.4641 217.532 47.7134C219.345 46.9624 221.34 46.7658 223.265 47.1485C225.189 47.5316 226.957 48.4765 228.345 49.864L232 46.2094Z" fill="#221F20"/>
</mask>
<g mask="url(#mask0_41_170)">
<path d="M205.078 37.92H228.294V73.5184H205.078V37.92Z" fill="#000000"/>
</g>
<defs>
<linearGradient id="paint0_linear_41_170" x1="180.12" y1="12.5755" x2="12.1886" y2="85.1267" gradientUnits="userSpaceOnUse">
<stop stop-color="#84502B"/>
<stop offset="0.553835" stop-color="#D89E70"/>
<stop offset="1" stop-color="#4E2E19"/>
</linearGradient>
</defs>
</svg>
